<svg width="221" height="56" xmlns="http://www.w3.org/2000/svg" xmlns:xlink="http://www.w3.org/1999/xlink"><defs><path id="a" d="M.062.918h28.31v25.867H.062z"/></defs><g fill="none" fill-rule="evenodd"><g transform="translate(0 27.88)"><mask id="b" fill="#fff"><use xlink:href="#a"/></mask><path fill="#FFF" mask="url(#b)" d="M22.363 5.727L0 12.204 8.532.918l-.135 5.226 13.966-.417M28.372 5.398l-9.04 21.45-3.404-13.733 3.978 3.4 8.466-11.117"/></g><path fill="#FFF" d="M30.802 28.823l10.88 20.573-12.78-6.057 5.145-.93-3.245-13.586M29.06 22.962l22.92 4.04-12.63 6.382 2.425-4.64-12.715-5.782M24.897 21.503L42.714 6.508l-3.226 13.778-1.993-4.83-12.598 6.047M20.147 24.169L19.142.91l8.949 10.954-5.049-1.363-2.895 13.667M19.605 29.604L.63 16.12l14.147-.334-4.178 3.14 9.006 10.678M69.137 12.927h-.106l-4.259 12.941h8.572l-4.207-12.941zm4.9 14.804h-9.851l-2.077 6.122c-1.013 2.982-1.544 5.273 1.651 5.326v.905h-7.88v-.905c2.874-.427 3.566-1.972 4.523-4.793l8.415-25.132h3.142l8.84 26.252c.905 2.82 1.65 3.673 4.364 3.673v.905H74.409v-.905c2.077 0 3.088-.906 2.397-2.984l-2.77-8.464zM93.944 36.518c0 2.075.64 2.66 3.141 2.66v.906h-9.957v-.905c2.876 0 3.196-.745 3.196-3.62V25.281c0-2.77-.692-3.09-3.887-3.09v-.904l6.602-.586h.905v4.102c3.514-3.038 5.165-4.102 6.443-4.102 1.065 0 2.502.64 3.46 1.49l-1.437 3.356c-1.544-.853-3.195-1.65-4.472-1.65-1.225 0-2.29.638-3.994 2.287v10.333M121.363 27.358h-.906c-.8-3.408-3.194-5.592-6.337-5.592-3.728 0-6.336 3.197-6.336 7.827 0 5.166 3.25 9.48 7.083 9.48 2.29 0 5.058-1.227 7.027-3.94v1.385c-2.023 2.766-4.897 4.15-8.306 4.15-5.59 0-9.477-3.886-9.477-9.53 0-5.803 4.366-10.436 9.743-10.436 2.824 0 4.367 1.064 5.325 1.064.479 0 .959-.37 1.278-1.064h.906v6.656M142.976 35.558c0 2.876.531 3.62 3.035 3.62v.906h-9.797v-.905c2.555 0 3.14-.586 3.14-3.034v-9.32c0-2.501-1.49-4.1-3.78-4.1-2.13 0-3.673 1.012-5.484 3.569v10.329c0 1.97.798 2.556 3.142 2.556v.905h-10.117v-.905c2.823-.053 3.355-.586 3.355-3.62V11.01c0-2.45-.693-2.822-3.355-2.822v-.904l6.07-.641h.905v17.839c2.395-2.77 4.154-3.78 6.602-3.78 3.142 0 6.284 2.074 6.284 6.55v8.305M160 54.216h1.155V.861H160zM205.317 15.239c-2.189.045-3.038 1.565-2.86 3.978l1.297 15.773c.267 3.128.803 4.112 3.172 4.334v.76h-9.205v-.76c2.1-.358 2.815-1.295 2.637-3.842l-1.252-16.534h-.089l-8.758 21.136h-.67l-8.58-21.136h-.09l-1.429 15.775c-.224 2.59.715 4.11 3.306 4.601v.76h-7.954v-.76c2.593-.358 2.995-1.876 3.263-4.692l1.564-17.606c-.983-1.072-1.877-1.563-3.351-1.787v-.759h6.478l8.178 20.152 8.31-20.152h6.033v.759M216.122 35.258c0 3.128.76 4.066 2.905 4.066v.76h-9.205v-.76c2.1 0 2.904-.804 2.904-4.066V19.305c0-3.217-.715-4.066-2.904-4.066v-.759h9.205v.759c-2.145 0-2.905.984-2.905 4.066v15.953"/></g></svg>