<svg width="189" height="48" xmlns="http://www.w3.org/2000/svg" xmlns:xlink="http://www.w3.org/1999/xlink"><defs><path id="a" d="M.054.783H24.77v23.162H.054z"/></defs><g fill="none" fill-rule="evenodd"><g transform="translate(0 24)"><mask id="b" fill="#fff"><use xlink:href="#a"/></mask><path fill="#0057B8" mask="url(#b)" d="M19.523 5.088L0 10.888 7.448.783l-.117 4.679 12.192-.374M24.77 4.794L16.877 24l-2.971-12.295 3.473 3.044 7.39-9.955"/></g><g fill="#0057B8"><path d="M26.806 25.2L36 43.2l-10.8-5.3 4.348-.813L26.806 25.2M25.2 20.4l20.4 3.722L34.359 30l2.159-4.274L25.2 20.4M21.6 19.2L37.2 6l-2.824 12.129-1.746-4.253L21.6 19.2M17.742 21.6L16.8 1.2l8.4 9.609-4.74-1.196L17.743 21.6M16.8 26.4L0 14.69l12.525-.29-3.7 2.726L16.8 26.4M60.608 10.488h-.091l-3.665 11.586h7.377l-3.62-11.586zm4.217 13.254h-8.477l-1.787 5.48c-.871 2.67-1.33 4.72 1.42 4.768v.81H49.2v-.81c2.474-.381 3.07-1.765 3.894-4.29l7.24-22.5h2.705l7.605 23.501c.78 2.525 1.42 3.289 3.756 3.289v.81h-9.254v-.81c1.787 0 2.657-.81 2.062-2.67l-2.383-7.578zM82.326 31.708c0 1.8.574 2.307 2.816 2.307v.785h-8.923v-.785c2.577 0 2.864-.645 2.864-3.138v-8.908c0-2.4-.62-2.678-3.483-2.678v-.783L81.516 18h.81v3.555C85.474 18.922 86.954 18 88.1 18c.953 0 2.241.553 3.1 1.291L89.912 22.2c-1.383-.738-2.862-1.43-4.007-1.43-1.097 0-2.052.553-3.579 1.983v8.955M106.334 24h-.795c-.701-3.072-2.802-5.04-5.558-5.04-3.271 0-5.558 2.88-5.558 7.055 0 4.657 2.85 8.545 6.212 8.545 2.009 0 4.438-1.105 6.165-3.55v1.247C105.025 34.75 102.504 36 99.513 36c-4.903 0-8.313-3.505-8.313-8.591 0-5.232 3.83-9.409 8.547-9.409 2.476 0 3.831.96 4.671.96.42 0 .841-.335 1.121-.96h.795v6M126.032 31.16c0 2.526.472 3.18 2.697 3.18v.795h-8.704v-.795c2.27 0 2.79-.514 2.79-2.665v-8.187c0-2.199-1.324-3.603-3.358-3.603-1.892 0-3.263.889-4.872 3.136v9.073c0 1.732.71 2.246 2.792 2.246v.795h-8.988v-.795c2.508-.046 2.98-.514 2.98-3.18V9.594c0-2.152-.615-2.48-2.98-2.48v-.794l5.391-.563h.805V21.43c2.128-2.434 3.69-3.321 5.865-3.321 2.791 0 5.582 1.822 5.582 5.754v7.296"/></g><path d="M159.178 23.3h2.77c3.836 0 5.34-2.626 5.34-5.252 0-3.023-2.255-5.172-5.737-5.172h-2.373V23.3zm0 7.203c0 2.785.711 3.621 2.572 3.621v.676h-8.15v-.676c1.74 0 2.571-.557 2.571-3.621V16.218c0-2.984-.751-3.541-2.571-3.541V12h9.296c5.104 0 7.556 2.944 7.556 5.969 0 2.506-1.345 4.615-4.668 5.61 4.233 2.746 5.658 10.266 9.416 10.545v.676h-4.629c-4.233-5.172-5.42-10.544-9.573-10.544h-1.82v6.247zM185.54 26.63c.118-2.995-1.957-4.224-3.72-4.224-2.311 0-3.682 1.69-3.84 4.224h7.56zm-7.56.653c-.077 6.106 3.643 7.642 5.524 7.642 1.92 0 2.899-.653 4.896-2.842v.999c-1.684 2.112-3.29 2.918-5.718 2.918-4.348 0-7.482-2.956-7.482-7.066 0-4.108 3.055-7.334 6.972-7.334 3.212 0 6.19 2.534 5.993 5.683h-10.184zM141.155 47.552h1.027V.678h-1.027z" fill="#333F48"/></g></svg>