<svg width="220" height="56" xmlns="http://www.w3.org/2000/svg" xmlns:xlink="http://www.w3.org/1999/xlink"><defs><path id="a" d="M.063.913h28.835v27.022H.063z"/></defs><g fill="none" fill-rule="evenodd"><g transform="translate(0 28)"><mask id="b" fill="#fff"><use xlink:href="#a"/></mask><path fill="#FFF" mask="url(#b)" d="M22.777 5.936L0 12.702 8.69.913l-.137 5.46 14.224-.437M28.898 5.594L19.69 28l-3.466-14.345 4.052 3.552 8.622-11.613"/></g><g fill="#FFF"><path d="M31.274 29.4L42 50.4l-12.6-6.183 5.072-.95L31.274 29.4M29.4 23.8l23.8 4.342L40.085 35l2.519-4.987L29.4 23.8M25.2 22.4L43.4 7l-3.295 14.15-2.037-4.961L25.2 22.4M20.7 25.2L19.6 1.4l9.8 11.21-5.53-1.395L20.7 25.2M19.6 30.8L0 17.138l14.613-.338-4.316 3.18L19.6 30.8M70.71 12.236h-.107l-4.275 13.517h8.606L70.71 12.236zm4.919 15.462h-9.89l-2.085 6.395c-1.016 3.114-1.55 5.507 1.658 5.562v.945H57.4v-.945c2.886-.445 3.58-2.06 4.542-5.005L70.39 8.4h3.155l8.873 27.418c.91 2.946 1.657 3.837 4.382 3.837v.945H76.003v-.945c2.086 0 3.1-.946 2.407-3.115l-2.781-8.842zM96.047 36.993c0 2.1.67 2.692 3.285 2.692v.915h-10.41v-.915c3.007 0 3.342-.753 3.342-3.662V25.631c0-2.801-.723-3.125-4.064-3.125v-.914L95.102 21h.945v4.147c3.673-3.071 5.4-4.147 6.736-4.147 1.113 0 2.615.645 3.617 1.506l-1.502 3.394c-1.614-.861-3.34-1.67-4.676-1.67-1.28 0-2.393.647-4.175 2.315v10.448M124.057 28.001h-.928c-.818-3.584-3.27-5.882-6.485-5.882-3.816 0-6.484 3.361-6.484 8.232 0 5.433 3.324 9.97 7.248 9.97 2.343 0 5.177-1.29 7.192-4.143v1.455c-2.071 2.91-5.012 4.367-8.501 4.367-5.72 0-9.699-4.089-9.699-10.023 0-6.104 4.469-10.977 9.972-10.977 2.889 0 4.469 1.119 5.45 1.119.489 0 .98-.39 1.307-1.119h.928v7.001M147.037 36.352c0 2.948.552 3.711 3.147 3.711v.928h-10.155v-.928c2.65 0 3.255-.6 3.255-3.11v-9.55c0-2.565-1.544-4.204-3.917-4.204-2.207 0-3.808 1.037-5.685 3.659v10.585c0 2.02.828 2.62 3.258 2.62v.928h-10.486v-.928c2.925-.054 3.477-.6 3.477-3.71v-25.16c0-2.51-.718-2.891-3.477-2.891v-.928l6.29-.656h.938V25c2.483-2.839 4.306-3.874 6.843-3.874 3.257 0 6.512 2.126 6.512 6.713v8.512"/></g><path d="M185.708 27.184h3.23c4.477 0 6.23-3.064 6.23-6.128 0-3.527-2.63-6.034-6.692-6.034h-2.768v12.162zm0 8.403c0 3.249.83 4.225 3 4.225v.788H179.2v-.788c2.03 0 3-.65 3-4.225V18.92c0-3.482-.877-4.132-3-4.132V14h10.846c5.954 0 8.815 3.435 8.815 6.964 0 2.924-1.57 5.384-5.446 6.546 4.938 3.202 6.6 11.976 10.985 12.302v.788H199c-4.939-6.034-6.323-12.302-11.169-12.302h-2.123v7.289zM216.464 31.069c.137-3.495-2.284-4.928-4.341-4.928-2.696 0-4.296 1.972-4.479 4.928h8.82zm-8.82.761c-.09 7.124 4.25 8.916 6.444 8.916 2.24 0 3.382-.762 5.712-3.316v1.165C217.836 41.06 215.961 42 213.128 42c-5.072 0-8.728-3.45-8.728-8.244 0-4.793 3.565-8.556 8.134-8.556 3.747 0 7.22 2.956 6.992 6.63h-11.882zM164.681 55.477h1.198V.791h-1.198z" fill="#FFF"/></g></svg>