<?xml version="1.0" encoding="UTF-8"?> <svg xmlns="http://www.w3.org/2000/svg" id="圖層_1" data-name="圖層 1" viewBox="0 0 200 200"><defs><style>.cls-1{fill:#0057b8;}.cls-2{fill:#fff;}</style></defs><circle class="cls-1" cx="100" cy="100" r="99.5"></circle><path class="cls-2" d="M120.14,155a45,45,0,0,0-7.52-.66c-2.25,0-3.8.1-3.82.1l-5.41.45-.21-5.24V117.32h-2.86v40.09h25.59A19.43,19.43,0,0,0,120.14,155Z"></path><path class="cls-2" d="M161.42,117.32v37.53l-5-.49s-1.46-.14-3.71-.14a43.93,43.93,0,0,0-7.47.74,19.14,19.14,0,0,0-5.72,2.45h24.78V117.32Z"></path><path class="cls-2" d="M129.91,115.08a42.23,42.23,0,0,0-8-2.62,61.82,61.82,0,0,0-14-1v38.16a54,54,0,0,1,12.59.49,22.78,22.78,0,0,1,9.37,4.12Z"></path><path class="cls-2" d="M95.54,141.18V112.54h7.64v-5.62l4.73-.23s1.24-.06,2.92-.06a60.81,60.81,0,0,1,12.51,1.17,48.38,48.38,0,0,1,8.88,2.91l.47.2.47-.2a45.28,45.28,0,0,1,8.66-2.91,15.8,15.8,0,0,0,2.41-.48V91.54h15.44L99.75,41.65,39.89,91.54H52.58v49.64Z"></path><path class="cls-2" d="M142.65,112.46a42,42,0,0,0-8,2.62v39.14c2.86-1.56,5.79-3.51,9.37-4.12a53.9,53.9,0,0,1,12.58-.49V111.45A61.75,61.75,0,0,0,142.65,112.46Z"></path></svg> 