<svg xmlns="http://www.w3.org/2000/svg" width="131" height="158" viewBox="0 0 131 158"><title>Group 3</title><g fill="none" fill-rule="evenodd"><path fill="#B5DCE8" d="M129.247 92.842c0 35.664-28.91 64.576-64.58 64.576-35.66 0-64.572-28.912-64.572-64.576 0-35.665 28.912-64.577 64.572-64.577 35.67 0 64.58 28.912 64.58 64.577"/><path fill="#FFFFFE" d="M116.357 59.857c0-4.635-.99-9.133-2.94-13.368-1.88-4.09-4.58-7.763-8.01-10.916-3.44-3.154-7.43-5.63-11.89-7.36-4.61-1.791-9.5-2.7-14.55-2.7-5.05 0-9.95.909-14.56 2.7-4.45 1.73-8.45 4.206-11.88 7.36-3.43 3.153-6.13 6.826-8.01 10.916-1.95 4.235-2.94 8.733-2.94 13.368 0 5.762 1.29 10.792 4.06 15.83 2.49 4.515 5.98 8.679 9.68 13.087l.07.08c2.06 2.46 7.01 10.744 7.57 14.359l1.02 2.384c2.47.028 2.84.364 6.28.364 2.74 0 5.68-.008 8.7-.027h.01c3.02.019 5.97.027 8.7.027 3.45 0 2.78-.336 5.25-.364l1.7-.511.51-2.893c.56-3.615 5.36-10.876 7.42-13.34l.07-.078c3.69-4.408 7.18-8.572 9.67-13.087 2.78-5.04 4.07-10.07 4.07-15.831"/><path fill="#179296" d="M61.687 120.773h34.48c1.11 0 2-.896 2-2 0-1.105-.89-2-2-2h-34.48c-1.1 0-2 .895-2 2 0 1.104.9 2 2 2M80.827 11.47V2.795c0-1.105-.9-2-2-2-1.11 0-2 .895-2 2v8.675c0 1.104.89 2 2 2 1.1 0 2-.896 2-2M120.177 31.696l7.02-7.05c.78-.782.78-2.048 0-2.827-.79-.78-2.05-.777-2.83.005l-7.02 7.05c-.78.782-.78 2.049 0 2.828.79.78 2.05.777 2.83-.006M30.447 24.647l7.02 7.049c.78.783 2.04.786 2.83.007.78-.78.78-2.046 0-2.83l-7.01-7.048c-.78-.783-2.05-.786-2.83-.007-.78.779-.79 2.046-.01 2.829M64.357 109.29h30.84l.25-1.7c.74-4.831 2.26-8.234 4.23-11.11 1.97-2.873 4.46-5.224 7.14-7.744 1.57-1.476 3.23-3.034 4.81-4.734l.03-.035.04-.037c2.59-3.056 4.48-6.37 5.69-10.125 1.21-3.756 1.75-7.93 1.75-12.757 0-10.886-4.52-20.768-11.81-27.9-7.28-7.137-17.34-11.556-28.41-11.555-11.07-.001-21.13 4.418-28.4 11.555-7.28 7.133-11.81 17.015-11.8 27.9-.01 8.994 2.47 16.772 7.35 22.767l.04.049.04.047c1.66 1.799 3.34 3.37 4.91 4.855 3.4 3.205 6.47 6.145 8.61 10.25.52.98 1.73 1.358 2.7.845.98-.513 1.36-1.721.85-2.7-2.53-4.811-6.03-8.104-9.42-11.305-1.57-1.486-3.17-2.99-4.71-4.66l-1.47 1.358 1.55-1.261c-4.21-5.194-6.45-11.963-6.45-20.245 0-9.766 4.04-18.612 10.6-25.044 6.55-6.428 15.6-10.411 25.6-10.411 10 0 19.05 3.983 25.61 10.412 6.57 6.432 10.61 15.278 10.61 25.043 0 4.535-.5 8.272-1.56 11.527-1.05 3.256-2.64 6.056-4.94 8.77l1.53 1.293-1.46-1.364c-1.47 1.573-3.06 3.074-4.63 4.549-2.67 2.517-5.41 5.068-7.7 8.389-2.29 3.317-4.08 7.402-4.88 12.78l1.97.299v-2h-29.11c-1.11 0-2 .896-2 2 0 1.105.89 2 2 2M65.937 131.344h5.05v-2l-1.62 1.173c.76 1.04 1.91 2.309 3.5 3.37 1.58 1.058 3.64 1.9 6.06 1.898 2.42.002 4.49-.84 6.07-1.897 1.59-1.062 2.73-2.331 3.49-3.366l-1.62-1.178v2h5.05c1.11 0 2-.895 2-2 0-1.104-.89-2-2-2h-5.05c-.64 0-1.23.303-1.61.822-.53.722-1.4 1.673-2.48 2.393-1.09.724-2.36 1.225-3.85 1.227-1.48-.002-2.75-.503-3.85-1.227-1.08-.72-1.95-1.671-2.47-2.388-.38-.52-.98-.827-1.62-.827h-5.05c-1.11 0-2 .895-2 2s.89 2 2 2"/><path fill="#179296" d="M76.927 105.96h4V74.365h-4z"/><path fill="#179296" d="M80.327 75.775l11.15-11.193c.78-.783.78-2.05 0-2.828-.78-.78-2.05-.778-2.83.005l-11.15 11.193c-.78.782-.78 2.049 0 2.828.78.78 2.05.778 2.83-.005"/><path fill="#179296" d="M80.157 72.952l-11.15-11.193c-.78-.783-2.05-.785-2.83-.005-.79.779-.79 2.045-.01 2.828l11.16 11.193c.77.783 2.04.785 2.82.005.79-.78.79-2.046.01-2.828"/></g></svg>