<svg xmlns="http://www.w3.org/2000/svg" width="150" height="153" viewBox="0 0 150 153"><title>Group</title><g fill="none" fill-rule="evenodd"><path fill="#C4E3EC" d="M129.697 75.25c0 35.665-28.91 64.577-64.57 64.577-35.67 0-64.579-28.912-64.579-64.576 0-35.665 28.909-64.577 64.579-64.577 35.66 0 64.57 28.912 64.57 64.577"/><path fill="#255192" d="M134.057 8.972l6.82-4.218 4.22 6.823c.58.94 1.81 1.23 2.75.649s1.23-1.813.65-2.753l-5.27-8.524c-.58-.94-1.81-1.23-2.75-.65l-8.53 5.27c-.94.582-1.23 1.814-.65 2.754.58.939 1.82 1.23 2.76.649"/><path fill="#FFFFFE" d="M16.443 150.845h21.694v-39.386H16.443z"/><path fill="#255192" d="M38.137 150.845v-2H18.443v-35.386h17.694v37.386h2v-2 2h2v-39.386c0-.526-.21-1.041-.59-1.414-.37-.372-.88-.586-1.41-.586H16.443c-.527 0-1.042.214-1.414.586-.373.373-.586.888-.586 1.414v39.386c0 .527.213 1.042.586 1.414.372.373.887.586 1.414.586h21.694c.53 0 1.04-.213 1.41-.586.38-.372.59-.887.59-1.414h-2"/><path fill="#FFFFFE" d="M50.907 150.845h21.69v-45.553h-21.69z"/><path fill="#255192" d="M72.597 150.845v-2h-19.69v-41.553h17.69v43.553h2v-2 2h2v-45.553c0-.527-.21-1.042-.58-1.414-.38-.373-.89-.586-1.42-.586h-21.69c-.53 0-1.04.213-1.42.586-.37.372-.58.887-.58 1.414v45.553c0 .527.21 1.042.58 1.414.38.373.89.586 1.42.586h21.69c.53 0 1.04-.213 1.42-.586.37-.372.58-.887.58-1.414h-2"/><path fill="#FFFFFE" d="M85.367 150.845h21.7V90.591h-21.7z"/><path fill="#255192" d="M107.067 150.845v-2h-19.7V92.59h17.7v58.254h2v-2 2h1.99V90.59c0-.527-.21-1.042-.58-1.415-.37-.372-.89-.585-1.41-.585h-21.7c-.52 0-1.04.213-1.41.585-.37.373-.59.888-.59 1.415v60.254c0 .527.22 1.042.59 1.414.37.373.89.586 1.41.586h21.7c.52 0 1.04-.213 1.41-.586.37-.372.58-.887.58-1.414h-1.99"/><path fill="#FFFFFE" d="M119.827 150.845h21.7V65.919h-21.7z"/><path fill="#255192" d="M141.527 150.845v-2h-19.7V67.919h17.7v82.926h2v-2 2h2V65.919c0-.527-.22-1.042-.59-1.414-.37-.373-.89-.586-1.41-.586h-21.7c-.52 0-1.04.213-1.41.586-.37.372-.59.887-.59 1.414v84.926c0 .527.22 1.042.59 1.414.37.373.89.586 1.41.586h21.7c.52 0 1.04-.213 1.41-.586.37-.372.59-.887.59-1.414h-2M11.278 99.079c.027.002.846.037 2.337.037 7.912-.006 34.762-.982 62.522-13.54 13.88-6.28 27.99-15.474 40-28.91 12.01-13.432 21.89-31.105 27.33-54.206.26-1.075-.41-2.152-1.48-2.406-1.08-.253-2.15.413-2.41 1.488-5.31 22.494-14.86 39.508-26.43 52.459-17.35 19.417-39.33 29.71-58.47 35.14-19.13 5.43-35.38 5.977-41.062 5.975-.714 0-1.261-.008-1.626-.017l-.41-.011-.099-.004-.026-.001c-1.104-.048-2.038.807-2.086 1.91-.049 1.104.806 2.038 1.91 2.086"/></g></svg>