<svg xmlns="http://www.w3.org/2000/svg" width="148" height="153" viewBox="0 0 148 153"><title>Group 2</title><g fill="none" fill-rule="evenodd"><path fill="#D7E3A5" d="M129.147 87.21c0 35.665-28.91 64.576-64.57 64.576-35.67 0-64.578-28.911-64.578-64.576 0-35.665 28.908-64.576 64.578-64.576 35.66 0 64.57 28.91 64.57 64.576"/><path fill="#9BC242" d="M64.367 73.114h-2c0 2.304-.93 4.372-2.44 5.885-1.51 1.509-3.58 2.436-5.88 2.437-2.31-.001-4.37-.928-5.89-2.437-1.5-1.513-2.43-3.581-2.43-5.885 0-2.305.93-4.374 2.43-5.886 1.52-1.51 3.58-2.437 5.89-2.438 2.3 0 4.37.929 5.88 2.438 1.51 1.513 2.44 3.58 2.44 5.886h4c0-6.807-5.51-12.322-12.32-12.324-6.81.002-12.32 5.517-12.32 12.324 0 6.806 5.51 12.32 12.32 12.322 6.81-.001 12.32-5.516 12.32-12.322h-2M34.877 84.91h-2c0 2.306-.93 4.374-2.44 5.886-1.51 1.51-3.58 2.437-5.88 2.438-2.31-.001-4.38-.928-5.889-2.438-1.51-1.512-2.437-3.58-2.438-5.885.001-2.305.928-4.373 2.438-5.885 1.509-1.51 3.579-2.437 5.889-2.438 2.3 0 4.37.929 5.88 2.438 1.51 1.512 2.44 3.58 2.44 5.885h4c0-6.807-5.52-12.321-12.32-12.323-6.811 0-12.326 5.517-12.327 12.323.001 6.806 5.516 12.322 12.327 12.323 6.8-.001 12.32-5.516 12.32-12.323h-2M36.827 133.996l6.9-32.165c.5-2.291 1.46-3.81 2.92-5.012 1.47-1.194 3.55-2.056 6.29-2.57l-.37-1.964.33 1.972 18.28-3.045 17.97-16.23-1.34-1.484-1.72 1.01.17-.101-.17.1.17-.1-.17.1c.03.052.58 1.024 1.11 2.463.53 1.437 1.03 3.338 1.02 5.203 0 1.068-.15 2.117-.52 3.1-.38.986-.96 1.914-1.88 2.793l-.02.016-12.32 12.19-18.87 5.769 1.17 3.826 19.81-6.057 13.01-12.87-1.41-1.421 1.37 1.454c1.37-1.29 2.31-2.772 2.88-4.288.57-1.517.78-3.057.78-4.512 0-2.631-.68-5.005-1.33-6.752-.66-1.745-1.31-2.863-1.35-2.933l-1.24-2.122-18.93 17.093-17.14 2.856-.02.004c-3.16.593-5.91 1.633-8.08 3.395-2.18 1.754-3.68 4.246-4.31 7.279l-6.9 32.164 3.91.839"/><path fill="#9BC242" d="M63.377 133.969l5.9-29.494-3.92-.785-5.9 29.494M110.197 81.962h-2c0 6.807 5.52 12.322 12.32 12.323 6.81-.001 12.33-5.516 12.33-12.323 0-6.806-5.52-12.321-12.33-12.322-6.8 0-12.32 5.516-12.32 12.322h4c0-2.304.93-4.372 2.44-5.885 1.51-1.51 3.58-2.437 5.88-2.438 2.31 0 4.38.929 5.89 2.438 1.51 1.513 2.44 3.58 2.44 5.885 0 2.305-.93 4.373-2.44 5.885-1.51 1.51-3.58 2.437-5.89 2.438-2.3-.001-4.37-.928-5.88-2.438-1.51-1.512-2.44-3.58-2.44-5.885h-2M147.267 133.024l-6.61-22.99-1.92.552 1.95-.42c-.31-1.471-.79-2.912-1.52-4.257-1.08-2.02-2.79-3.8-5.16-4.977-2.37-1.185-5.34-1.798-9.06-1.798h-37.76l.39 2.328c.03.135.54 3.27 2.46 6.578.96 1.65 2.3 3.359 4.17 4.682 1.86 1.324 4.28 2.216 7.14 2.209h23.6v-4h-23.6c-2.05-.007-3.57-.59-4.84-1.477-1.89-1.325-3.2-3.483-3.97-5.357-.39-.932-.65-1.78-.81-2.383-.07-.301-.13-.541-.16-.7l-.04-.173v-.036l-1.98.329v2h35.4c2.19-.001 3.96.243 5.38.65 2.14.62 3.48 1.562 4.46 2.744.98 1.185 1.61 2.688 1.99 4.477l.02.067 6.63 23.057 3.84-1.105"/><path fill="#9BC242" d="M125.477 132.894l-7.5-20.646-3.76 1.366 7.5 20.645M12.815 133.996l4.364-20.367c.504-2.291 1.46-3.81 2.918-5.012 1.47-1.194 3.56-2.056 6.3-2.57l.01-.002 14.76-2.951-.79-3.922-14.74 2.949.39 1.96-.37-1.964c-3.15.593-5.9 1.632-8.077 3.394-2.179 1.754-3.676 4.247-4.312 7.28l-4.365 20.366 3.912.839"/><path fill="#FFFFFE" d="M55.947 11.845L15.17 29.295l13.427 10.38-1.82 16.729 40.78-17.452"/><path fill="#9BC242" d="M55.157 10.006l-43.904 18.79 15.234 11.776-2.07 19.016 43.92-18.797-1.57-3.678-37.63 16.106 1.57-14.442-11.621-8.981 37.651-16.113-1.58-3.677"/><path fill="#9BC242" d="M85.737 76.255L53.047.065l-3.68 1.577 32.69 76.19M95.687 100.349l-5.39-13.042-3.69 1.527 5.38 13.042M109.097 132.813l-8.52-20.63-3.7 1.528 8.52 20.629"/></g></svg>