<svg xmlns="http://www.w3.org/2000/svg" width="145" height="143" viewBox="0 0 145 143"><title>Group 4</title><g fill="none" fill-rule="evenodd"><path fill="#FBE0B5" d="M129.857 65.003c0 35.664-28.91 64.576-64.58 64.576-35.66 0-64.573-28.912-64.573-64.576C.704 29.338 29.617.426 65.277.426c35.67 0 64.58 28.912 64.58 64.577"/><path fill="#ED9B2D" d="M139.067 37.074l-1.57-.663 1.5.807c.05-.093.06-.121.07-.144l-1.57-.663 1.5.807-1.72-.926 1.56 1.178c.11-.142.14-.203.16-.252l-1.72-.926 1.56 1.178-1.59-1.201 1.29 1.522c.17-.153.24-.25.3-.321l-1.59-1.201 1.29 1.522-1.29-1.526.88 1.793c.2-.098.32-.191.41-.267l-1.29-1.526.88 1.793-.88-1.795v1.999c.39-.002.68-.11.88-.204l-.88-1.795v1.999-2l-.85 1.81c.27.13.58.192.85.19v-2l-.85 1.81.85-1.81-1.43 1.395c.14.15.34.305.58.416l.85-1.811-1.43 1.395 1.43-1.394-1.87.719c.07.169.18.406.44.675l1.43-1.394-1.87.719 1.87-.718-1.99.214c.02.105.03.247.12.504l1.87-.718-1.99.214 1.98-.213h-1.99c0 .048 0 .11.01.213l1.98-.213h-1.99 1.97l-1.95-.27c-.01.057-.02.127-.02.27h1.97l-1.95-.27 1.7.236-1.65-.483c-.01.035-.02.048-.05.247l1.7.236-1.65-.483.54.156-.53-.183-.01.027.54.156-.53-.183c-.01.043-.17.435-.47.908-.46.725-1.25 1.689-2.49 2.468-1.26.777-2.97 1.407-5.49 1.412-1.94 0-4.37-.392-7.37-1.46l-.02-.005-2.32-.783-.64 1.896.76-1.851c-10.77-4.427-23.08-7.257-40.44-7.251h-.14c-17.36-.006-29.67 2.824-40.44 7.25l.76 1.852-.63-1.896-2.33.783-.01.006c-3 1.067-5.43 1.459-7.38 1.459-1.8-.002-3.19-.33-4.3-.796-1.65-.7-2.69-1.73-3.34-2.6-.33-.434-.544-.825-.673-1.09-.064-.131-.106-.232-.124-.28l-.008-.023-.59.207.601-.171-.011-.036-.59.207.601-.171-1.543.438 1.567-.34-.024-.098-1.543.438 1.567-.34-1.829.397 1.851-.278-.022-.12-1.829.398 1.851-.278-1.942.292h1.963c-.001-.162-.014-.233-.021-.292l-1.942.292h1.963-1.993l1.897.612c.108-.364.09-.5.096-.612h-1.993l1.897.612-1.902-.614 1.435 1.39c.307-.325.404-.595.467-.776l-1.902-.614 1.435 1.39-1.435-1.39.807 1.828c.26-.113.474-.277.628-.437l-1.435-1.391.807 1.828-.807-1.83v2c.256.002.55-.054.807-.17l-.807-1.83v2-1.998l-.858 1.806c.194.09.477.19.858.193v-2l-.858 1.807.856-1.804-1.448 1.374c.103.1.23.249.592.43l.856-1.804-1.448 1.374 1.434-1.36-1.683 1.037c.043.065.086.146.249.323l1.434-1.36-1.683 1.037 1.599-.985-1.691.818c.017.033.036.075.092.167l1.599-.985-1.691.818 1.41-.682-1.439.618.029.064 1.41-.682-1.439.618c.437 1.015 1.613 1.484 2.628 1.048 1.015-.437 1.487-1.613 1.047-2.628-.02-.046-.039-.091-.096-.197-.032-.056-.065-.122-.175-.268-.061-.075-.134-.172-.315-.324-.093-.075-.215-.167-.411-.261-.194-.091-.478-.192-.858-.193-.258-.002-.551.055-.809.17-.462.204-.749.54-.894.78-.219.372-.243.589-.274.74-.024.15-.024.24-.024.313 0 .147.011.22.019.28.034.215.053.254.071.326.067.22.142.412.269.695.435.953 1.417 2.659 3.344 4.178 1.913 1.52 4.803 2.775 8.663 2.765 2.49 0 5.37-.5 8.72-1.691l-.67-1.884.63 1.895 2.37-.798.06-.024c10.33-4.235 21.98-6.946 38.92-6.952h.14c16.94.006 28.59 2.717 38.92 6.952l.06.024 2.37.798.64-1.895-.67 1.884c3.34 1.19 6.23 1.69 8.71 1.69 2.3.002 4.25-.43 5.86-1.111 2.41-1.02 4.02-2.578 4.99-3.894.49-.66.84-1.261 1.06-1.731.12-.235.2-.436.27-.606l.09-.25.04-.156.03-.14c.01-.07.03-.142.03-.355-.01-.091.01-.2-.08-.544-.05-.172-.13-.438-.43-.79-.15-.17-.37-.353-.64-.48-.27-.13-.59-.191-.85-.19-.4.003-.69.11-.88.205-.37.189-.49.339-.59.44-.16.178-.2.26-.25.327-.05.096-.08.144-.1.186l-.04.097c-.43 1.018.04 2.19 1.06 2.62 1.02.432 2.19-.045 2.62-1.062"/><path fill="#ED9B2D" d="M74.777 108.578h4V33.055h-4zM142.637 82.786h-2c0 1.558-.43 3.037-1.25 4.443-1.24 2.102-3.4 4.013-6.22 5.382-2.82 1.37-6.29 2.194-10.04 2.193-5 .004-9.49-1.47-12.63-3.73-1.57-1.127-2.8-2.443-3.62-3.845-.83-1.406-1.26-2.885-1.26-4.443 0-.275.05-.733.17-1.3.23-1.067.7-2.515 1.36-4.172 2.28-5.825 6.72-14.212 10.57-21.07 1.93-3.433 3.71-6.495 5.01-8.697.65-1.101 1.18-1.987 1.54-2.597l.57-.941-1.71-1.04-1.71 1.04s.08.122.22.357c1.06 1.758 5.87 9.789 10.4 18.248 2.26 4.227 4.45 8.565 6.06 12.245.8 1.839 1.45 3.515 1.9 4.9.44 1.379.65 2.502.64 3.027h4c0-.692-.1-1.392-.26-2.146-.31-1.408-.84-3.006-1.54-4.787-2.44-6.204-6.92-14.625-10.81-21.566-3.89-6.932-7.18-12.343-7.19-12.356-.36-.594-1.01-.961-1.71-.961-.69 0-1.35.367-1.71.96-.01.017-4.9 8.054-9.8 17.09-2.46 4.522-4.91 9.29-6.78 13.464-.93 2.089-1.72 4.028-2.28 5.743-.28.858-.51 1.66-.68 2.413-.16.754-.26 1.454-.26 2.146 0 2.315.66 4.523 1.81 6.472 1.73 2.929 4.52 5.298 7.92 6.952 3.41 1.652 7.45 2.593 11.78 2.594 5.78-.004 11.04-1.668 14.96-4.481 1.96-1.408 3.59-3.113 4.74-5.065 1.15-1.95 1.81-4.157 1.81-6.472h-2"/><path fill="#ED9B2D" d="M105.467 81.532h35.32v-4h-35.32zM49.947 82.786h-2c-.01 1.558-.44 3.037-1.26 4.443-1.23 2.102-3.39 4.013-6.22 5.382-2.82 1.37-6.28 2.194-10.03 2.193-5.01.004-9.5-1.47-12.635-3.73-1.571-1.127-2.8-2.443-3.625-3.845-.825-1.406-1.255-2.885-1.257-4.443-.001-.275.05-.733.174-1.3.23-1.067.701-2.515 1.352-4.172 2.281-5.825 6.721-14.212 10.571-21.07 1.93-3.433 3.71-6.495 5.01-8.697.65-1.101 1.18-1.987 1.55-2.597.36-.61.56-.94.56-.941l-1.7-1.04-1.71 1.04s.07.122.21.356c1.06 1.759 5.87 9.79 10.4 18.248 2.26 4.228 4.45 8.566 6.06 12.246.8 1.839 1.46 3.514 1.9 4.9.45 1.379.66 2.502.65 3.027h4c-.01-.692-.11-1.392-.27-2.146-.3-1.407-.84-3.006-1.54-4.787-2.43-6.204-6.91-14.625-10.81-21.566-3.89-6.932-7.18-12.343-7.19-12.356-.36-.594-1.01-.961-1.7-.961-.7 0-1.35.367-1.71.96-.01.017-4.9 8.054-9.81 17.09-2.452 4.522-4.909 9.29-6.774 13.464-.933 2.089-1.717 4.028-2.284 5.743-.282.858-.511 1.66-.674 2.413-.162.754-.263 1.454-.264 2.146-.002 2.315.659 4.523 1.809 6.472 1.729 2.929 4.516 5.298 7.917 6.952 3.41 1.652 7.45 2.593 11.79 2.594 5.77-.004 11.04-1.668 14.96-4.481 1.96-1.408 3.59-3.113 4.74-5.065 1.15-1.95 1.81-4.157 1.81-6.472h-2"/><path fill="#ED9B2D" d="M12.775 81.532h35.312v-4H12.775z"/><path fill="#353E47" d="M78.657 17.444c0 1.04-.83 1.88-1.88 1.88-1.03 0-1.88-.84-1.88-1.88 0-1.044.85-1.883 1.88-1.883 1.05 0 1.88.839 1.88 1.883"/><path fill="#ED9B2D" d="M78.657 17.444h-2 .12l-.08-.083-.04.083h.12l-.08-.083.08.084v-.12l-.08.036.08.084v-.12.119h.12l-.12-.12v.12h.12-.12v.117l.12-.117h-.12v.117-.121l-.08.084.08.037v-.121l-.08.084.08-.08h-.12l.04.08.08-.08h-.12 4c.01-1.062-.43-2.048-1.13-2.746-.7-.702-1.68-1.14-2.75-1.137-1.06-.001-2.04.435-2.74 1.135-.7.696-1.14 1.68-1.14 2.748 0 2.148 1.74 3.88 3.88 3.88 1.07.002 2.05-.435 2.75-1.136.7-.698 1.13-1.682 1.13-2.744h-2"/><path fill="#FFFFFE" d="M76.817 119.635c-15.18 0-28.51 7.964-36.03 19.943l71.99-.125c-7.54-11.911-20.82-19.818-35.96-19.818"/><path fill="#ED9B2D" d="M76.817 119.635v-2c-15.9 0-29.86 8.34-37.73 20.879l-1.93 3.07 79.25-.138-1.94-3.063c-7.88-12.466-21.8-20.748-37.65-20.748v4c14.43 0 27.08 7.533 34.27 18.887l1.69-1.07-.01-2-71.99.126.01 2 1.69 1.063c7.17-11.42 19.87-19.006 34.34-19.006v-2"/></g></svg>