<svg xmlns="http://www.w3.org/2000/svg" width="150" height="149" viewBox="0 0 150 149"><title>Group 5</title><g fill="none" fill-rule="evenodd"><path fill="#DECDDB" d="M129.157 83.466c0 35.665-28.92 64.576-64.58 64.576C28.907 148.042 0 119.13 0 83.466 0 47.8 28.907 18.89 64.577 18.89c35.66 0 64.58 28.91 64.58 64.576"/><path fill="#FFFFFE" d="M98.717 79.812l35.75-34.59c4.42-4.518 7.16-10.775 7.16-17.693 0-13.776-10.86-24.943-24.25-24.943-7.51 0-14.21 3.506-18.66 9.01-4.45-5.504-11.15-9.01-18.65-9.01-13.39 0-24.25 11.167-24.25 24.943 0 6.918 2.74 13.175 7.16 17.694l35.74 34.589"/><path fill="#52307C" d="M98.717 79.812l1.39 1.437 35.77-34.611.02-.016c4.77-4.88 7.73-11.643 7.73-19.093 0-7.418-2.93-14.156-7.67-19.032-4.74-4.877-11.32-7.912-18.58-7.911-8.14-.001-15.42 3.81-20.21 9.753l1.55 1.257 1.56-1.257c-4.8-5.943-12.08-9.754-20.21-9.753-7.26-.001-13.84 3.034-18.58 7.91-4.74 4.877-7.67 11.615-7.67 19.033 0 7.45 2.95 14.213 7.73 19.093l.02.019 37.15 35.954 1.39-1.346-1.39-1.437 1.39-1.437-35.74-34.59-1.39 1.438 1.43-1.4c-4.07-4.156-6.59-9.908-6.59-16.294 0-6.358 2.5-12.091 6.54-16.243 4.03-4.15 9.58-6.698 15.71-6.7 6.87 0 13 3.202 17.1 8.267l1.55 1.925 1.56-1.925c4.1-5.065 10.23-8.266 17.1-8.267 6.13.002 11.67 2.55 15.71 6.7 4.03 4.152 6.54 9.885 6.54 16.243 0 6.386-2.53 12.138-6.59 16.295l1.43 1.399-1.39-1.437-35.75 34.589 1.39 1.437 1.39-1.437-1.39 1.437"/><path fill="#52307C" d="M128.187 27.529c-.01 3.144-1.16 6.03-3.25 8.215l1.44 1.384-1.39-1.437-27.66 26.764 2.78 2.874 27.69-26.791.02-.025c2.82-2.934 4.37-6.851 4.37-10.984h-4M72.507 35.744c-2.09-2.185-3.25-5.071-3.25-8.215 0-3.205 1.24-6.088 3.21-8.167 1.97-2.078 4.65-3.334 7.6-3.335v-4c-4.11-.002-7.84 1.77-10.51 4.582-2.66 2.81-4.3 6.679-4.3 10.92 0 4.132 1.54 8.05 4.36 10.984l2.89-2.77M108.067 101.679l22.52-9.38c1.47-.614 2.99-.903 4.49-.904 4.32.002 8.44 2.39 10.48 6.472l1.79-.894-1.02-1.722-56.53 33.405c-2.5 1.478-5.33 2.239-8.19 2.239-1.31 0-2.62-.16-3.91-.48l-34.63-8.658c-1.52-.381-3.08-.572-4.64-.572-1.4 0-2.79.152-4.16.457l-21.788 4.842.868 3.904 21.79-4.842c1.08-.241 2.18-.361 3.29-.361 1.23 0 2.47.15 3.67.453l34.63 8.657c1.61.402 3.25.597 4.88.597 3.56 0 7.1-.947 10.22-2.792l58.14-34.354-.83-1.667c-2.74-5.473-8.27-8.686-14.06-8.684-2.01 0-4.06.392-6.03 1.21l-22.52 9.382 1.54 3.693"/><path fill="#52307C" d="M64.397 110.414h35.75c5.06-.001 9.15-4.097 9.15-9.151 0-5.054-4.09-9.15-9.15-9.15h-21.16l-19.6-5.882c-3.4-1.02-6.92-1.532-10.44-1.532-2.74 0-5.48.31-8.17.93l-28.314 6.535.899 3.898 28.315-6.535c2.4-.552 4.84-.828 7.27-.828 3.13 0 6.26.456 9.29 1.363l20.17 6.05h21.74c1.43.002 2.71.574 3.64 1.509.94.939 1.51 2.214 1.51 3.642 0 1.429-.57 2.704-1.51 3.643-.93.935-2.21 1.507-3.64 1.508h-35.75v4"/></g></svg>