<?xml version="1.0" encoding="UTF-8"?> <svg xmlns="http://www.w3.org/2000/svg" id="圖層_1" data-name="圖層 1" viewBox="0 0 200 200"><defs><style>.cls-1{fill:#0057b8;}.cls-2{fill:#fff;}.cls-3{fill:none;}</style></defs><circle class="cls-1" cx="100" cy="100" r="99.5"></circle><path class="cls-2" d="M147.52,85.53A47.69,47.69,0,0,0,120.31,46.9l-.23-.12c-.57-.26-1.15-.5-1.72-.75l-.44-.18c-.52-.21-1-.41-1.58-.6l-.62-.23-1.44-.47-.78-.24-1.35-.37-.91-.23L110,43.43l-1-.21c-.39-.08-.79-.14-1.18-.2l-1.11-.18-1.12-.14-1.18-.13-1.09-.08-1.22-.07c-.35,0-.71,0-1.06,0l-1.24,0h-.22a47.73,47.73,0,0,0-33.31,81.49L100,157.63l33.76-33.76a47.62,47.62,0,0,0,13.76-38.34"></path><path class="cls-3" d="M147.52,85.53A47.69,47.69,0,0,0,120.31,46.9l-.23-.12c-.57-.26-1.15-.5-1.72-.75l-.44-.18c-.52-.21-1-.41-1.58-.6l-.62-.23-1.44-.47-.78-.24-1.35-.37-.91-.23L110,43.43l-1-.21c-.39-.08-.79-.14-1.18-.2l-1.11-.18-1.12-.14-1.18-.13-1.09-.08-1.22-.07c-.35,0-.71,0-1.06,0l-1.24,0h-.22a47.73,47.73,0,0,0-33.31,81.49L100,157.63l33.76-33.76A47.62,47.62,0,0,0,147.52,85.53Z"></path></svg> 