<?xml version="1.0" encoding="UTF-8"?> <svg xmlns="http://www.w3.org/2000/svg" id="圖層_1" data-name="圖層 1" viewBox="0 0 200 200"><defs><style>.cls-1{fill:#0057b8;}.cls-2{fill:#fff;}</style></defs><circle class="cls-1" cx="100" cy="100" r="99.5"></circle><path class="cls-2" d="M150.6,92.3l-9.45,3.86v36.33c5.61-3.78,9.49-8.86,9.49-16.27Z"></path><path class="cls-2" d="M172.79,73.22,102.09,44.6a6,6,0,0,0-4.34,0L27.31,73.13A1.6,1.6,0,0,0,27.2,76l70.41,28.3a5.81,5.81,0,0,0,4.59,0L130.45,93,101.83,79.1a14.51,14.51,0,0,1-1.9.14c-4.46,0-8.06-2.13-8.06-4.77s3.6-4.77,8.06-4.77S108,71.84,108,74.47a3.08,3.08,0,0,1-.5,1.62L137,90.39,172.83,76A1.52,1.52,0,0,0,172.79,73.22Z"></path><path class="cls-2" d="M129.14,145.7V100.92l-26,10.44c-2.19.88-3.92,1.23-6.11.15L49.23,92.3v23.92c0,12.35,10.83,18,22.38,22.37,13.65,5.19,35.31,5.33,50.51,1.77v8.42a7,7,0,0,0,13.41,2.88A6,6,0,0,1,129.14,145.7Z"></path></svg> 